<svg width="660" height="480" viewBox="0 0 660 480" fill="none" xmlns="http://www.w3.org/2000/svg">
<g clip-path="url(#clip0_64_1689)">
<path d="M660 264.276C660 264.742 659.624 265.12 659.16 265.12H0V263.431H659.16C659.624 263.431 660 263.809 660 264.276Z" fill="#E6E6E6"/>
<path d="M216.735 59.2332C230.493 59.2332 241.646 48.0227 241.646 34.1938C241.646 20.365 230.493 9.15454 216.735 9.15454C202.978 9.15454 191.825 20.365 191.825 34.1938C191.825 48.0227 202.978 59.2332 216.735 59.2332Z" fill="#FFB6B6"/>
<path d="M229.935 64.5165L197.147 73.9332L192.463 84.5269L181.924 135.142V215.183C181.924 215.183 169.042 243.433 176.068 268.152C183.579 294.574 210.028 263.388 229.935 266.947C249.843 270.506 281.46 274.038 281.46 274.038L262.724 188.11L258.04 83.3499L229.935 64.5165Z" fill="#E6E6E6"/>
<path d="M223.748 42.3936L218.683 39.8482C218.683 39.8482 217.417 28.3941 214.885 25.8487C212.353 23.3033 212.353 22.0306 212.353 22.0306L216.151 16.9399C216.151 16.9399 197.159 27.1214 193.361 20.758C189.562 14.3945 194.627 11.8492 194.627 11.8492L188.296 6.75845C188.296 6.75845 195.893 11.8492 197.159 8.03113C198.425 4.21307 206.022 1.62261 206.022 1.62261C206.022 1.62261 222.611 5.39557 221.28 1.62261C219.949 -2.15034 225.014 1.66771 226.28 2.94039C227.546 4.21307 238.941 16.9399 240.207 15.6672C241.474 14.3945 247.804 18.2126 246.538 19.4853C245.272 20.758 245.272 22.0306 246.538 23.3033C247.804 24.576 255.401 38.5755 249.07 43.6663C242.74 48.757 233.877 55.1204 235.143 60.2111C236.409 65.3019 235.143 43.6663 223.748 42.3936Z" fill="#2F2E41"/>
<path d="M100.952 105.436C94.5583 99.8958 92.2196 92.0891 95.7278 87.9997C99.236 83.9103 107.262 85.087 113.657 90.6299C116.241 92.8089 118.27 95.5783 119.571 98.7067L146.366 122.524L134.979 134.925L109.773 110.129C106.502 109.295 103.477 107.686 100.952 105.436Z" fill="#FFB6B6"/>
<path d="M192.744 84.9318L210.394 83.319L225.873 157.523C228.822 171.662 219.601 185.466 205.465 188.075L192.744 190.422L111.662 118.662L123.508 98.8125L183.302 136.515L192.744 84.9318Z" fill="#E6E6E6"/>
<path d="M153.339 414.926C153.339 414.926 139.34 441.059 140.34 440.054C141.34 439.048 158.339 445.079 158.339 445.079L168.339 418.946L153.339 414.926Z" fill="#FFB6B6"/>
<path d="M132.677 231.998C132.677 231.998 125.511 260.792 126.234 259.57C126.957 258.348 144.91 259.986 144.91 259.986L148.199 232.182L132.677 231.998Z" fill="#FFB6B6"/>
<path d="M257.333 227.157C225.697 231.624 197.122 227.729 173.838 209.379C173.838 209.379 156.839 266.67 187.837 272.701C218.835 278.732 253.333 268.367 257.333 258.315C261.333 248.264 257.333 227.157 257.333 227.157Z" fill="#2F2E41"/>
<path d="M198.337 245.249L163.839 326.978L147.84 421.459L168.839 426.484L206.399 339.542L257.333 256.305L198.337 245.249Z" fill="#2F2E41"/>
<path d="M193.837 221.943C193.837 221.943 185.838 159.625 170.838 155.605C163.526 153.645 156.689 153.835 151.602 154.544C146.475 155.259 142.388 159.197 141.491 164.322L127.861 242.234H147.135L153.339 221.126L169.838 250.086L193.837 221.943Z" fill="#2F2E41"/>
<path d="M144.84 252.096L125.782 250.086L122.841 261.142C122.841 261.142 91.8432 289.286 107.842 291.296C123.841 293.306 138.84 282.25 138.84 282.25L160.849 269.559C160.849 269.559 152.34 246.757 146.34 246.757C140.34 246.757 144.84 252.096 144.84 252.096Z" fill="#2F2E41"/>
<path d="M154.839 440.556L135.781 438.546L132.841 449.602C132.841 449.602 101.843 477.745 117.842 479.756C133.841 481.766 148.84 470.71 148.84 470.71L170.848 458.019C170.848 458.019 169.338 434.211 163.339 434.211C157.339 434.211 154.839 440.556 154.839 440.556Z" fill="#2F2E41"/>
<path d="M251.336 288.397C249.038 296.319 243.109 301.548 238.094 300.077C233.079 298.607 230.877 290.993 233.177 283.069C234.052 279.891 235.672 276.97 237.901 274.55L248.059 241.109L263.569 246.235L251.909 278.658C252.494 281.904 252.298 285.243 251.336 288.397Z" fill="#FFB6B6"/>
<path d="M262.072 83.4954L253.984 81.2026C246.358 96.4547 243.079 113.53 244.509 130.54L248.501 178.002L235.33 261.424L261.145 268.137L281.487 163.446L262.072 83.4954Z" fill="#E6E6E6"/>
<path d="M104.621 213.925C104.267 212.836 101.583 213.315 101.325 212.341C101.068 211.37 103.644 210.556 105.619 207.82C105.976 207.326 108.221 204.217 107.36 202.909C105.728 200.43 94.3723 206.604 91.6466 203.14C91.0484 202.379 90.8023 201.074 89.0203 198.645C88.3114 197.679 87.8565 197.212 87.3131 197.226C86.542 197.245 86.2661 198.215 85.0542 199.971C83.2367 202.606 82.5808 202.275 81.3835 204.433C80.4947 206.035 80.3894 207.059 79.7484 207.119C78.8415 207.205 78.4667 205.21 77.3584 205.133C76.2275 205.054 75.0958 207.025 74.5348 208.565C73.482 211.454 74.1339 213.663 74.2784 215.864C74.4355 218.257 74.0667 221.759 71.4809 226.253L47.0907 265.314C52.3287 257.351 67.1975 235.637 73.188 227.672C74.9174 225.373 76.7758 223.064 79.6363 222.63C82.3902 222.212 85.741 223.581 90.418 223.502C90.9643 223.492 92.4844 223.447 92.8541 222.637C93.1599 221.967 92.4008 221.385 92.6769 220.756C93.0473 219.912 94.7136 220.274 96.9845 219.713C98.5857 219.318 99.6736 218.665 100.609 218.103C100.891 217.934 105.093 215.375 104.621 213.925Z" fill="#F2F2F2"/>
<path d="M40.7388 223.045C40.1047 222.905 39.5644 224.368 39.0143 224.214C38.4661 224.061 38.8118 222.555 38.0458 220.791C37.9077 220.473 37.0373 218.468 36.1502 218.515C34.469 218.605 34.2072 225.989 31.729 226.334C31.1852 226.41 30.4768 226.155 28.7765 226.333C28.1001 226.404 27.7411 226.493 27.591 226.766C27.3781 227.152 27.7719 227.567 28.2799 228.672C29.0417 230.329 28.6909 230.557 29.3993 231.77C29.9251 232.671 30.3946 233.019 30.2391 233.352C30.0191 233.824 28.937 233.434 28.5794 233.958C28.2146 234.493 28.8505 235.62 29.4405 236.341C30.5478 237.694 31.8144 238.01 32.9309 238.574C34.1443 239.187 35.7478 240.379 37.1963 242.952L49.2315 266.255C46.8547 261.373 40.5424 247.772 38.3818 242.519C37.7581 241.002 37.167 239.419 37.7803 237.883C38.3707 236.403 40.0062 235.145 41.3168 232.815C41.4698 232.543 41.8863 231.78 41.5975 231.364C41.3588 231.02 40.8555 231.226 40.6279 230.908C40.3226 230.482 40.9802 229.765 41.3616 228.482C41.6306 227.578 41.6255 226.853 41.6212 226.23C41.6198 226.042 41.583 223.231 40.7388 223.045Z" fill="#F2F2F2"/>
<path d="M52.7457 228.731L53.124 225.22L53.356 224.999C54.4295 223.98 55.1011 222.899 55.353 221.787C55.393 221.611 55.4241 221.432 55.4559 221.25C55.5815 220.528 55.7374 219.63 56.4279 218.698C56.8143 218.179 57.8364 217.005 58.8906 217.415C59.1751 217.523 59.3671 217.708 59.5005 217.905C59.534 217.87 59.5683 217.836 59.605 217.799C60.0604 217.355 60.3789 217.192 60.6858 217.035C60.9216 216.914 61.165 216.79 61.5771 216.459C61.7578 216.313 61.9026 216.183 62.0245 216.073C62.3944 215.741 62.8676 215.352 63.5156 215.506C64.2026 215.695 64.4382 216.354 64.5945 216.79C64.8735 217.567 64.9595 218.102 65.0164 218.457C65.0368 218.587 65.0606 218.733 65.0786 218.78C65.2289 219.161 67.1165 219.26 67.8267 219.301C69.4232 219.388 70.8047 219.463 71.1369 220.562C71.3753 221.348 70.8785 222.205 69.6177 223.178C69.2249 223.481 68.8323 223.689 68.4902 223.845C68.7006 224.045 68.8683 224.317 68.8785 224.688C68.9016 225.564 68.0071 226.237 66.2198 226.691C65.7757 226.805 65.1783 226.955 64.3965 226.917C64.0284 226.899 63.7059 226.842 63.4309 226.789C63.3899 226.947 63.3148 227.111 63.1792 227.266C62.7814 227.724 62.139 227.84 61.267 227.582C60.3043 227.312 59.5437 226.946 58.8725 226.623C58.2863 226.343 57.7808 226.103 57.3566 226.037C56.5677 225.926 55.8321 226.416 54.9518 227.067L52.7457 228.731Z" fill="#F2F2F2"/>
<path d="M59.0425 208.734L55.5679 209.257L55.2968 209.087C54.0431 208.302 52.833 207.923 51.699 207.96C51.5187 207.966 51.3388 207.981 51.1555 207.997C50.4289 208.058 49.5258 208.134 48.4537 207.699C47.8559 207.455 46.4671 206.759 46.5942 205.63C46.6252 205.326 46.755 205.092 46.9103 204.913C46.8689 204.889 46.8275 204.864 46.7827 204.838C46.2391 204.508 46.0015 204.239 45.7727 203.981C45.5966 203.782 45.4153 203.577 44.992 203.26C44.8064 203.121 44.6438 203.014 44.5072 202.923C44.0939 202.648 43.5998 202.286 43.5836 201.617C43.5909 200.901 44.1651 200.505 44.5452 200.242C45.223 199.774 45.7159 199.555 46.0429 199.409C46.1624 199.356 46.2969 199.296 46.338 199.267C46.6664 199.024 46.2825 197.164 46.1419 196.463C45.8208 194.888 45.5428 193.526 46.516 192.924C47.2121 192.493 48.1632 192.759 49.419 193.738C49.8099 194.043 50.1104 194.372 50.3473 194.665C50.4864 194.41 50.7056 194.178 51.0594 194.074C51.8973 193.829 52.7716 194.528 53.6614 196.151C53.8838 196.554 54.1804 197.096 54.3421 197.866C54.4178 198.229 54.4451 198.557 54.4639 198.837C54.6258 198.837 54.8024 198.869 54.9864 198.961C55.5277 199.232 55.8027 199.827 55.7756 200.74C55.7603 201.745 55.6004 202.577 55.4604 203.312C55.3389 203.953 55.2361 204.505 55.2806 204.934C55.374 205.729 56.0318 206.321 56.8822 207.011L59.0425 208.734Z" fill="#F2F2F2"/>
<path d="M59.5099 198.246L59.8882 194.736L60.1202 194.515C61.1937 193.495 61.8652 192.415 62.1171 191.303C62.1572 191.126 62.1882 190.947 62.22 190.765C62.3456 190.043 62.5016 189.146 63.192 188.214C63.5784 187.695 64.6005 186.521 65.6547 186.931C65.9392 187.038 66.1313 187.224 66.2647 187.42C66.2982 187.386 66.3325 187.352 66.3692 187.315C66.8245 186.87 67.1431 186.707 67.4499 186.551C67.6857 186.43 67.9292 186.306 68.3412 185.974C68.522 185.829 68.6667 185.698 68.7887 185.589C69.1586 185.257 69.6317 184.868 70.2798 185.022C70.9668 185.211 71.2023 185.869 71.3586 186.305C71.6377 187.083 71.7237 187.618 71.7805 187.973C71.801 188.102 71.8248 188.248 71.8427 188.296C71.9931 188.677 73.8807 188.775 74.5909 188.816C76.1874 188.904 77.5688 188.979 77.9011 190.078C78.1394 190.864 77.6426 191.721 76.3818 192.694C75.9891 192.996 75.5965 193.205 75.2544 193.361C75.4648 193.561 75.6324 193.833 75.6427 194.203C75.6658 195.08 74.7712 195.753 72.984 196.206C72.5398 196.32 71.9424 196.471 71.1607 196.433C70.7925 196.415 70.47 196.358 70.1951 196.305C70.1541 196.463 70.0789 196.626 69.9434 196.782C69.5456 197.239 68.9032 197.356 68.0312 197.098C67.0685 196.828 66.3079 196.461 65.6367 196.139C65.0504 195.858 64.545 195.618 64.1208 195.553C63.3319 195.442 62.5963 195.931 61.7159 196.583L59.5099 198.246Z" fill="#F2F2F2"/>
<path d="M48.2439 265.514L47.6296 264.904L46.7757 264.813C46.7798 264.733 46.7742 264.544 46.7679 264.249C46.7351 262.634 46.6331 257.719 47.3141 250.166C47.7896 244.894 48.5841 239.543 49.6757 234.258C50.7691 228.965 51.9039 225.026 52.8153 221.861C53.5031 219.473 54.1974 217.209 54.8752 215.003C56.6838 209.109 58.3916 203.543 59.4491 197.193C59.6859 195.775 60.1774 192.825 59.1711 189.342C58.5873 187.322 57.5876 185.421 56.1988 183.693L57.543 182.602C59.0754 184.511 60.1809 186.617 60.8293 188.86C61.9451 192.721 61.4095 195.936 61.1522 197.481C60.0758 203.943 58.3511 209.563 56.5246 215.513C55.8503 217.711 55.1583 219.966 54.4735 222.343C53.5703 225.48 52.4457 229.384 51.3665 234.609C50.2873 239.831 49.5029 245.117 49.0327 250.322C48.3607 257.78 48.4617 262.622 48.4947 264.212C48.5118 265.062 48.5155 265.24 48.2439 265.514Z" fill="#F2F2F2"/>
<path d="M52.5114 185.691C52.4423 185.676 52.3728 185.658 52.3031 185.637C50.8855 185.238 49.7484 184.077 48.9224 182.187C48.5358 181.298 48.4446 180.363 48.2626 178.497C48.234 178.209 48.1079 176.754 48.263 174.825C48.3639 173.565 48.4987 173.059 48.8399 172.661C49.2189 172.218 49.7295 171.965 50.269 171.837C50.2836 171.67 50.3379 171.507 50.4456 171.353C50.8895 170.711 51.6324 170.975 52.0355 171.112C52.2386 171.185 52.4917 171.278 52.7764 171.326C53.2238 171.404 53.4909 171.325 53.8953 171.207C54.2823 171.095 54.7634 170.954 55.4283 170.966C56.7405 170.984 57.7119 171.577 58.0322 171.772C59.7191 172.791 60.3015 174.416 60.9755 176.298C61.1095 176.676 61.554 178.039 61.6575 179.795C61.7322 181.062 61.567 181.58 61.3777 181.951C60.9909 182.713 60.3986 183.067 58.9286 183.81C57.3929 184.589 56.6224 184.979 55.9907 185.179C54.5206 185.643 53.5974 185.934 52.5114 185.691Z" fill="#F2F2F2"/>
<path d="M446.706 38.7407C446.706 38.7407 456.242 44.3622 453.115 49.9215C449.987 55.4808 445.627 63.0532 448.585 65.438C451.543 67.8229 456.426 78.3378 456.426 78.3378C456.426 78.3378 477.271 75.4114 475.314 91.6868C473.357 107.962 463.565 110.181 471.958 117.341C480.351 124.501 463.235 133.064 463.235 133.064C463.235 133.064 451.418 129.363 448.723 117.981C446.027 106.599 451.126 126.684 449.416 128.124C447.706 129.564 441.065 139.057 436.367 126.436C431.668 113.815 436.321 108.922 430.113 101.473C423.904 94.0241 419.683 81.9762 419.868 79.8701C420.053 77.7641 412.766 58.5462 423.982 51.0514C435.198 43.5565 446.706 38.7407 446.706 38.7407Z" fill="#2F2E41"/>
<path d="M540.637 215.33C546.173 219.936 553.026 220.798 555.941 217.255C558.857 213.713 556.732 207.109 551.192 202.502C549.005 200.631 546.403 199.314 543.606 198.661L519.901 179.443L511.167 190.817L535.462 208.555C536.624 211.196 538.398 213.519 540.637 215.33Z" fill="#FFB6B6"/>
<path d="M469.594 110.521C469.594 110.521 450.991 98.0156 444.9 104.147C438.808 110.279 440.263 125.595 440.263 125.595L489.046 182.742L527.728 207.457L538.1 191.131L505.579 161.962L469.594 110.521Z" fill="#3F3D56"/>
<path d="M442.326 83.4328L449.075 107.548H412.03L424.229 77.8345L442.326 83.4328Z" fill="#FFB6B6"/>
<path opacity="0.1" d="M442.326 83.4328L449.075 107.548H412.03L424.229 77.8345L442.326 83.4328Z" fill="black"/>
<path d="M361.538 261.481C361.06 268.689 364.373 274.78 368.936 275.085C373.5 275.39 377.586 269.795 378.063 262.584C378.293 259.706 377.834 256.815 376.725 254.152L378.367 223.585L364.081 223.116L363.978 253.299C362.527 255.791 361.69 258.597 361.538 261.481Z" fill="#FFB6B6"/>
<path d="M404.557 142.256C404.557 142.256 403.767 119.775 395.256 118.395C386.745 117.015 375.238 127.159 375.238 127.159L357.658 200.358L360.34 246.352L379.581 245.259L384.096 201.683L404.557 142.256Z" fill="#3F3D56"/>
<path d="M487.073 410.905C487.073 410.905 501.072 437.038 500.072 436.033C499.072 435.028 482.073 441.059 482.073 441.059L472.074 414.926L487.073 410.905Z" fill="#FFB6B6"/>
<path d="M507.736 227.978C507.736 227.978 514.902 256.771 514.179 255.55C513.456 254.328 495.503 255.965 495.503 255.965L492.213 228.162L507.736 227.978Z" fill="#FFB6B6"/>
<path d="M452.075 99.5067H417.125L379.08 125.64L368.08 217.106L374.08 235.198L385.079 256.305C385.079 256.305 374.08 210.07 401.078 228.162C428.077 246.254 430.077 249.269 430.077 249.269L466.074 231.177L479.574 156.296L469.574 115.086L452.075 99.5067Z" fill="#3F3D56"/>
<path d="M383.079 223.136C414.716 227.604 443.291 223.709 466.574 205.358C466.574 205.358 483.573 262.65 452.575 268.681C421.577 274.711 387.079 264.346 383.079 254.295C379.08 244.244 383.079 223.136 383.079 223.136Z" fill="#2F2E41"/>
<path d="M442.076 241.229L476.574 322.957L492.573 417.438L471.574 422.464L434.013 335.521L383.079 252.285L442.076 241.229Z" fill="#2F2E41"/>
<path d="M446.576 217.922C446.576 217.922 454.575 155.605 469.574 151.584C476.886 149.624 483.723 149.814 488.81 150.524C493.938 151.239 498.025 155.177 498.922 160.301L512.552 238.213H493.278L487.073 217.106L470.574 246.066L446.576 217.922Z" fill="#2F2E41"/>
<path d="M495.573 248.076L514.631 246.066L517.571 257.122C517.571 257.122 548.569 285.265 532.57 287.275C516.571 289.286 501.572 278.229 501.572 278.229L479.564 265.539C479.564 265.539 488.073 242.736 494.073 242.736C500.072 242.736 495.573 248.076 495.573 248.076Z" fill="#2F2E41"/>
<path d="M485.573 436.536L504.631 434.525L507.572 445.582C507.572 445.582 538.57 473.725 522.571 475.735C506.572 477.745 491.573 466.689 491.573 466.689L469.564 453.999C469.564 453.999 471.074 430.191 477.074 430.191C483.073 430.191 485.573 436.536 485.573 436.536Z" fill="#2F2E41"/>
<path d="M433.525 88.6731C445.846 88.6731 455.834 78.6332 455.834 66.2483C455.834 53.8634 445.846 43.8235 433.525 43.8235C421.204 43.8235 411.215 53.8634 411.215 66.2483C411.215 78.6332 421.204 88.6731 433.525 88.6731Z" fill="#FFB6B6"/>
<path d="M442.076 41.2072C442.076 41.2072 445.795 51.6721 439.846 53.9146C433.896 56.1571 425.716 59.1471 426.46 62.8846C427.204 66.622 424.229 77.8344 424.229 77.8344C424.229 77.8344 442.076 89.0469 430.178 100.259C418.28 111.472 409.356 106.851 411.215 117.758C413.074 128.664 394.483 124.179 394.483 124.179C394.483 124.179 387.791 113.714 392.996 103.249C398.202 92.7843 389.278 111.472 387.047 111.472C384.816 111.472 373.661 114.462 378.123 101.754C382.585 89.0469 389.278 88.2994 389.278 78.5819C389.278 68.8645 393.74 56.9046 395.227 55.4096C396.714 53.9146 403.407 34.4798 416.793 35.9748C430.178 37.4698 442.076 41.2072 442.076 41.2072Z" fill="#2F2E41"/>
<path d="M247.088 410.905C247.088 410.905 233.089 437.038 234.088 436.033C235.088 435.028 252.087 441.059 252.087 441.059L262.087 414.926L247.088 410.905Z" fill="#A0616A"/>
<path d="M351.081 223.136C319.445 227.604 290.87 223.709 267.586 205.358C267.586 205.358 250.587 262.65 281.586 268.681C312.584 274.711 347.082 264.346 351.081 254.295C355.081 244.244 351.081 223.136 351.081 223.136Z" fill="#2F2E41"/>
<path d="M292.085 241.229L257.587 322.957L241.588 417.438L262.587 422.464L300.147 335.521L351.081 252.285L292.085 241.229Z" fill="#2F2E41"/>
<path d="M248.588 436.536L229.53 434.525L226.589 445.582C226.589 445.582 195.591 473.725 211.59 475.735C227.589 477.745 242.588 466.689 242.588 466.689L264.596 453.999C264.596 453.999 263.087 430.191 257.087 430.191C251.087 430.191 248.588 436.536 248.588 436.536Z" fill="#2F2E41"/>
<path d="M278.697 397.156C278.697 397.156 273.402 426.355 274.044 425.089C274.687 423.823 292.708 424.288 292.708 424.288L294.199 396.329L278.697 397.156Z" fill="#A0616A"/>
<path d="M269.424 221.802L261.692 310.242L275.471 405.076L296.988 403.344L306.033 308.995L328.936 214.024L269.424 221.802Z" fill="#2F2E41"/>
<path d="M287.991 421.071L269.245 425.069L269.841 436.498C269.841 436.498 248.993 472.881 264.828 469.832C280.664 466.782 291.538 451.614 291.538 451.614L308.578 432.718C308.578 432.718 299.835 410.539 294.128 412.4C288.421 414.26 287.991 421.071 287.991 421.071Z" fill="#2F2E41"/>
<path d="M287.455 38.7407C287.455 38.7407 277.919 44.3622 281.046 49.9215C284.174 55.4808 288.534 63.0532 285.576 65.438C282.618 67.8229 277.735 78.3378 277.735 78.3378C277.735 78.3378 256.89 75.4114 258.847 91.6868C260.804 107.962 270.596 110.181 262.203 117.341C253.81 124.501 270.926 133.064 270.926 133.064C270.926 133.064 282.742 129.363 285.438 117.981C288.134 106.599 283.035 126.684 284.745 128.124C286.455 129.564 293.095 139.057 297.794 126.436C302.493 113.815 297.84 108.922 304.048 101.473C310.257 94.0241 314.478 81.9762 314.293 79.8701C314.108 77.7641 321.394 58.5462 310.179 51.0514C298.963 43.5565 287.455 38.7407 287.455 38.7407Z" fill="#2F2E41"/>
<path d="M291.835 83.4328L285.085 107.548H322.13L309.932 77.8345L291.835 83.4328Z" fill="#A0616A"/>
<path opacity="0.1" d="M291.835 83.4328L285.085 107.548H322.13L309.932 77.8345L291.835 83.4328Z" fill="black"/>
<path d="M372.623 261.481C373.101 268.689 369.789 274.78 365.225 275.085C360.661 275.39 356.575 269.795 356.098 262.584C355.868 259.706 356.327 256.815 357.436 254.152L355.794 223.585L370.08 223.116L370.183 253.299C371.634 255.791 372.471 258.597 372.623 261.481Z" fill="#A0616A"/>
<path d="M329.604 142.256C329.604 142.256 330.394 119.775 338.905 118.395C347.416 117.015 358.923 127.159 358.923 127.159L376.503 200.358L373.821 246.352L354.58 245.259L350.064 201.683L329.604 142.256Z" fill="#507698"/>
<path d="M282.086 99.5067H317.036L355.081 125.64L366.08 217.106L360.081 235.198L349.082 256.305C349.082 256.305 360.081 210.07 333.082 228.162C332.812 228.343 332.545 228.522 332.28 228.7C314.901 240.368 291.969 239.17 275.881 225.76L263.087 215.095L270.086 179.916L264.587 115.086L282.086 99.5067Z" fill="#507698"/>
<path d="M194.63 214.019C189.024 218.54 182.16 219.297 179.298 215.711C176.436 212.125 178.661 205.554 184.27 201.032C186.485 199.195 189.106 197.918 191.914 197.308L215.906 178.454L224.467 189.96L199.907 207.324C198.705 209.948 196.895 212.243 194.63 214.019Z" fill="#A0616A"/>
<path d="M267.25 110.308C267.25 110.308 286.039 98.0885 292.037 104.313C298.035 110.537 296.349 125.828 296.349 125.828L246.708 182.223L207.656 206.345L197.532 189.863L230.49 161.193L267.25 110.308Z" fill="#507698"/>
<path d="M300.636 88.6731C312.957 88.6731 322.946 78.6332 322.946 66.2483C322.946 53.8634 312.957 43.8235 300.636 43.8235C288.315 43.8235 278.327 53.8634 278.327 66.2483C278.327 78.6332 288.315 88.6731 300.636 88.6731Z" fill="#A0616A"/>
<path d="M289.53 51.2171C289.53 51.2171 286.244 40.2047 291.721 40.2047C297.199 40.2047 319.11 41.306 321.301 43.5084C323.493 45.7109 349.42 67.8153 334.082 85.435C318.745 103.055 334.082 111.568 334.082 111.568C334.082 111.568 345.404 138.215 334.448 140.417C323.493 142.62 278.554 130.026 289.53 109.582C301.442 87.3972 306.984 52.3812 289.53 51.2171Z" fill="#2F2E41"/>
<path d="M654.588 214.93C654.234 213.841 651.549 214.32 651.292 213.346C651.035 212.375 653.611 211.561 655.586 208.825C655.942 208.332 658.187 205.222 657.326 203.914C655.694 201.436 644.339 207.609 641.613 204.145C641.015 203.385 640.769 202.079 638.987 199.65C638.278 198.684 637.823 198.217 637.28 198.231C636.509 198.25 636.233 199.22 635.021 200.977C633.203 203.611 632.547 203.28 631.35 205.438C630.461 207.04 630.356 208.064 629.715 208.124C628.808 208.21 628.433 206.215 627.325 206.138C626.194 206.059 625.062 208.03 624.501 209.57C623.449 212.46 624.1 214.668 624.245 216.87C624.402 219.262 624.033 222.764 621.447 227.258L597.057 266.319C602.295 258.356 617.164 236.642 623.155 228.677C624.884 226.378 626.742 224.069 629.603 223.635C632.357 223.217 635.708 224.586 640.385 224.507C640.931 224.497 642.451 224.452 642.821 223.642C643.126 222.973 642.367 222.39 642.644 221.761C643.014 220.917 644.68 221.279 646.951 220.718C648.552 220.323 649.64 219.67 650.576 219.108C650.858 218.939 655.059 216.38 654.588 214.93Z" fill="#F2F2F2"/>
<path d="M590.705 224.05C590.071 223.91 589.531 225.373 588.981 225.219C588.433 225.066 588.778 223.56 588.012 221.796C587.874 221.478 587.004 219.473 586.117 219.521C584.436 219.611 584.174 226.994 581.696 227.339C581.152 227.415 580.443 227.16 578.743 227.338C578.067 227.409 577.708 227.499 577.558 227.771C577.345 228.157 577.739 228.573 578.246 229.677C579.008 231.334 578.658 231.562 579.366 232.776C579.892 233.676 580.361 234.024 580.206 234.357C579.986 234.829 578.904 234.439 578.546 234.963C578.181 235.498 578.817 236.625 579.407 237.346C580.514 238.7 581.781 239.015 582.898 239.579C584.111 240.192 585.714 241.384 587.163 243.957L599.198 267.26C596.821 262.378 590.509 248.778 588.348 243.524C587.725 242.007 587.134 240.424 587.747 238.888C588.337 237.409 589.973 236.151 591.283 233.82C591.436 233.548 591.853 232.785 591.564 232.369C591.325 232.025 590.822 232.231 590.595 231.914C590.289 231.487 590.947 230.77 591.328 229.488C591.597 228.584 591.592 227.858 591.588 227.235C591.586 227.047 591.55 224.236 590.705 224.05Z" fill="#F2F2F2"/>
<path d="M602.712 229.736L603.091 226.225L603.323 226.005C604.396 224.985 605.068 223.904 605.32 222.792C605.36 222.616 605.391 222.437 605.422 222.255C605.548 221.533 605.704 220.636 606.394 219.703C606.781 219.184 607.803 218.011 608.857 218.42C609.142 218.528 609.334 218.713 609.467 218.91C609.501 218.876 609.535 218.842 609.572 218.805C610.027 218.36 610.346 218.197 610.652 218.04C610.888 217.919 611.132 217.795 611.544 217.464C611.724 217.318 611.869 217.188 611.991 217.078C612.361 216.746 612.834 216.357 613.482 216.511C614.169 216.7 614.405 217.359 614.561 217.795C614.84 218.573 614.926 219.107 614.983 219.462C615.003 219.592 615.027 219.738 615.045 219.785C615.196 220.166 617.083 220.265 617.793 220.306C619.39 220.393 620.771 220.468 621.103 221.567C621.342 222.353 620.845 223.211 619.584 224.183C619.192 224.486 618.799 224.695 618.457 224.851C618.667 225.051 618.835 225.322 618.845 225.693C618.868 226.57 617.974 227.242 616.186 227.696C615.742 227.81 615.145 227.961 614.363 227.922C613.995 227.904 613.672 227.848 613.398 227.795C613.357 227.952 613.281 228.116 613.146 228.271C612.748 228.729 612.106 228.845 611.234 228.587C610.271 228.318 609.51 227.951 608.839 227.629C608.253 227.348 607.747 227.108 607.323 227.042C606.534 226.931 605.799 227.421 604.918 228.072L602.712 229.736Z" fill="#F2F2F2"/>
<path d="M609.009 209.739L605.535 210.262L605.263 210.092C604.01 209.307 602.8 208.928 601.666 208.965C601.485 208.971 601.305 208.987 601.122 209.002C600.396 209.063 599.492 209.139 598.42 208.704C597.823 208.46 596.434 207.764 596.561 206.635C596.592 206.331 596.722 206.097 596.877 205.918C596.836 205.894 596.794 205.869 596.749 205.843C596.206 205.513 595.968 205.244 595.739 204.986C595.563 204.787 595.382 204.582 594.959 204.265C594.773 204.126 594.61 204.019 594.474 203.928C594.06 203.653 593.566 203.291 593.55 202.622C593.558 201.906 594.132 201.51 594.512 201.248C595.19 200.779 595.683 200.56 596.01 200.414C596.129 200.362 596.264 200.301 596.305 200.272C596.633 200.029 596.249 198.169 596.109 197.468C595.787 195.894 595.509 194.531 596.483 193.929C597.179 193.498 598.13 193.764 599.386 194.743C599.776 195.048 600.077 195.377 600.314 195.67C600.453 195.415 600.672 195.183 601.026 195.079C601.864 194.834 602.738 195.533 603.628 197.156C603.85 197.559 604.147 198.101 604.309 198.871C604.384 199.234 604.412 199.562 604.43 199.842C604.592 199.842 604.769 199.874 604.953 199.966C605.494 200.237 605.769 200.832 605.742 201.745C605.727 202.75 605.567 203.582 605.427 204.317C605.306 204.958 605.203 205.51 605.247 205.939C605.341 206.735 605.998 207.326 606.849 208.016L609.009 209.739Z" fill="#F2F2F2"/>
<path d="M609.477 199.252L609.855 195.741L610.087 195.52C611.16 194.501 611.832 193.42 612.084 192.308C612.124 192.131 612.155 191.953 612.187 191.77C612.312 191.049 612.468 190.151 613.159 189.219C613.545 188.7 614.567 187.526 615.621 187.936C615.906 188.043 616.098 188.229 616.231 188.425C616.265 188.391 616.299 188.357 616.336 188.32C616.791 187.876 617.11 187.713 617.417 187.556C617.652 187.435 617.896 187.311 618.308 186.979C618.489 186.834 618.633 186.703 618.755 186.594C619.125 186.262 619.598 185.873 620.246 186.027C620.933 186.216 621.169 186.874 621.325 187.31C621.604 188.088 621.69 188.623 621.747 188.978C621.768 189.108 621.791 189.254 621.809 189.301C621.96 189.682 623.847 189.78 624.558 189.822C626.154 189.909 627.535 189.984 627.868 191.083C628.106 191.869 627.609 192.726 626.348 193.699C625.956 194.002 625.563 194.21 625.221 194.366C625.431 194.566 625.599 194.838 625.609 195.209C625.632 196.085 624.738 196.758 622.951 197.212C622.506 197.326 621.909 197.476 621.127 197.438C620.759 197.42 620.437 197.363 620.162 197.31C620.121 197.468 620.046 197.631 619.91 197.787C619.512 198.245 618.87 198.361 617.998 198.103C617.035 197.833 616.275 197.467 615.603 197.144C615.017 196.864 614.512 196.623 614.087 196.558C613.299 196.447 612.563 196.937 611.683 197.588L609.477 199.252Z" fill="#F2F2F2"/>
<path d="M598.21 266.519L597.596 265.909L596.742 265.818C596.746 265.738 596.741 265.549 596.735 265.254C596.702 263.639 596.6 258.724 597.281 251.171C597.756 245.899 598.551 240.548 599.642 235.263C600.736 229.97 601.87 226.031 602.782 222.866C603.47 220.478 604.164 218.214 604.842 216.008C606.65 210.115 608.358 204.548 609.416 198.198C609.653 196.78 610.144 193.83 609.138 190.347C608.554 188.327 607.554 186.426 606.165 184.698L607.51 183.607C609.042 185.516 610.148 187.622 610.796 189.865C611.912 193.726 611.376 196.941 611.119 198.486C610.042 204.948 608.318 210.568 606.491 216.518C605.817 218.716 605.125 220.971 604.44 223.349C603.537 226.485 602.412 230.389 601.333 235.614C600.254 240.836 599.469 246.122 598.999 251.327C598.327 258.785 598.428 263.627 598.461 265.218C598.478 266.067 598.482 266.245 598.21 266.519Z" fill="#F2F2F2"/>
<path d="M602.478 186.696C602.409 186.681 602.339 186.663 602.27 186.642C600.852 186.243 599.715 185.082 598.889 183.192C598.502 182.303 598.411 181.368 598.229 179.502C598.201 179.214 598.074 177.759 598.23 175.83C598.33 174.57 598.465 174.064 598.807 173.666C599.185 173.223 599.696 172.97 600.236 172.842C600.25 172.676 600.304 172.512 600.412 172.358C600.856 171.716 601.599 171.98 602.002 172.117C602.205 172.19 602.458 172.283 602.743 172.332C603.19 172.409 603.458 172.33 603.862 172.213C604.249 172.1 604.73 171.959 605.395 171.971C606.707 171.989 607.678 172.582 607.999 172.777C609.686 173.796 610.268 175.421 610.942 177.303C611.076 177.681 611.521 179.044 611.624 180.8C611.699 182.067 611.534 182.585 611.344 182.956C610.957 183.718 610.365 184.072 608.895 184.815C607.36 185.594 606.589 185.984 605.957 186.184C604.487 186.648 603.564 186.94 602.478 186.696Z" fill="#F2F2F2"/>
<path d="M167.15 205.74L166.021 169.965C166.003 169.384 166.23 168.819 166.644 168.414C167.059 168.009 167.628 167.796 168.205 167.831L196.448 169.534C197.018 169.568 197.554 169.842 197.917 170.286C198.28 170.729 198.444 171.31 198.367 171.879L193.59 207.437C193.445 208.513 192.488 209.299 191.411 209.227L169.074 207.742C168.847 207.727 168.632 207.676 168.432 207.595C167.694 207.295 167.176 206.583 167.15 205.74Z" fill="#507698"/>
<path d="M166.056 166.618C166.451 166.577 166.981 166.525 167.616 166.472C167.446 166.154 167.377 165.778 167.449 165.392L167.954 162.712C168.085 162.017 168.642 161.483 169.34 161.39C173.499 160.831 187.802 159.314 196.808 163.421C197.372 163.678 197.734 164.243 197.752 164.864L197.834 167.723C197.845 168.077 197.742 168.404 197.563 168.676C198.312 168.878 199.058 169.092 199.799 169.326C200.263 169.472 200.595 169.883 200.65 170.369L200.79 171.587C200.879 172.359 200.249 173.024 199.477 172.971L165.713 170.679C164.944 170.627 164.409 169.89 164.594 169.138L164.983 167.558C165.108 167.048 165.537 166.673 166.056 166.618Z" fill="#3F3D56"/>
<path d="M82.1547 104.223L81.0265 68.4482C81.0082 67.8675 81.2352 67.3021 81.6496 66.8971C82.0643 66.4918 82.6331 66.2793 83.2105 66.3141L111.453 68.0168C112.023 68.0508 112.559 68.3251 112.922 68.7689C113.285 69.2125 113.449 69.7933 113.373 70.3624L108.595 105.92C108.45 106.996 107.493 107.782 106.416 107.71L84.0792 106.225C83.8526 106.21 83.6368 106.16 83.4369 106.078C82.6992 105.778 82.1813 105.066 82.1547 104.223Z" fill="#507698"/>
<path d="M81.0615 65.1015C81.4566 65.0597 81.9859 65.0082 82.6213 64.9546C82.4514 64.6366 82.3819 64.2606 82.4545 63.8747L82.9589 61.195C83.0898 60.4995 83.6472 59.9664 84.3452 59.8726C88.5037 59.3136 102.807 57.7972 111.813 61.9044C112.377 62.1614 112.739 62.7256 112.757 63.3473L112.84 66.2061C112.85 66.5596 112.748 66.8872 112.568 67.1588C113.317 67.3612 114.063 67.5752 114.804 67.8086C115.268 67.9548 115.6 68.3663 115.656 68.8518L115.795 70.0696C115.884 70.8423 115.254 71.5066 114.482 71.4542L80.7176 69.1621C79.9493 69.11 79.4141 68.3729 79.599 67.6215L79.988 66.0406C80.1134 65.5313 80.5424 65.1564 81.0615 65.1015Z" fill="#3F3D56"/>
<path d="M525.128 214.786L524 179.011C523.981 178.431 524.208 177.865 524.623 177.46C525.037 177.055 525.606 176.842 526.184 176.877L554.426 178.58C554.997 178.614 555.532 178.888 555.895 179.332C556.258 179.776 556.422 180.356 556.346 180.925L551.568 216.483C551.423 217.559 550.466 218.345 549.389 218.273L527.052 216.788C526.826 216.773 526.61 216.723 526.41 216.641C525.672 216.341 525.154 215.629 525.128 214.786Z" fill="#507698"/>
<path d="M524.035 175.665C524.43 175.623 524.959 175.571 525.594 175.518C525.425 175.2 525.355 174.824 525.428 174.438L525.932 171.758C526.063 171.063 526.62 170.529 527.318 170.436C531.477 169.877 545.78 168.36 554.786 172.467C555.35 172.724 555.712 173.289 555.73 173.91L555.813 176.769C555.823 177.123 555.721 177.45 555.542 177.722C556.29 177.924 557.037 178.138 557.777 178.372C558.241 178.518 558.573 178.929 558.629 179.415L558.769 180.633C558.857 181.405 558.227 182.07 557.455 182.017L523.691 179.725C522.922 179.673 522.387 178.936 522.572 178.185L522.961 176.604C523.087 176.094 523.516 175.72 524.035 175.665Z" fill="#3F3D56"/>
</g>
<defs>
<clipPath id="clip0_64_1689">
<rect width="660" height="480" fill="white"/>
</clipPath>
</defs>
</svg>
